#!OML:ASF H:\Not Pregnant\Project 1\Capture day 1\Session 1\non-pregnant.ASF
:FULLY-SPECIFIED
:DEGREES
678
root 6.37218 15.5325 30.8109 11.1888 -7.56708 -8.26341
lowerback -4.44385 2.84922 8.77544
upperback -7.32728 3.71137 0.231586
thorax -4.66349 1.41741 -4.62826
lowerneck 18.5498 -11.2502 -30.4102
upperneck -7.54822 -21.1258 42.2685
head 3.77484 -12.8803 20.5806
rclavicle -2.57426e-014 1.15295e-014
rhumerus -38.4992 -11.5179 -82.6078
rradius 24.0447
rwrist 29.9024
rhand -9.8473 -0.839739
rfingers 7.12502
rthumb 16.1307 -30.1885
lclavicle -2.57426e-014 1.15295e-014
lhumerus -45.8918 2.67845 85.0264
lradius 29.6131
lwrist 30.8824
lhand -16.2489 -11.3644
lfingers 7.12502
lthumb 9.96005 18.3799
rfemur -3.40865 9.12857 30.5186
rtibia 28.4023
rfoot -18.0068 9.0644
rtoes -24.8557
lfemur -40.0766 -4.12919 -10.4753
ltibia 31.4749
lfoot -3.82778 -9.2625
ltoes -26.3914
679
root 6.38789 15.5371 30.9155 11.2368 -7.68506 -8.03624
lowerback -4.64928 2.83565 8.50183
upperback -7.39114 3.67525 0.161073
thorax -4.62754 1.41081 -4.54215
lowerneck 18.6761 -11.2575 -30.398
upperneck -7.61785 -21.1581 42.3081
head 3.75283 -12.9139 20.6082
rclavicle -5.56597e-015 -6.75868e-015
rhumerus -38.7371 -12.1092 -82.2628
rradius 23.7969
rwrist 30.3988
rhand -9.76606 -0.864117
rfingers 7.12502
rthumb 16.2089 -30.2065
lclavicle -5.56597e-015 -6.75868e-015
lhumerus -45.9898 3.03049 84.6757
lradius 29.0547
lwrist 30.6618
lhand -16.0035 -10.8495
lfingers 7.12502
lthumb 10.1968 18.8834
rfemur -3.51299 9.07593 30.1812
rtibia 29.105
rfoot -17.6701 9.20174
rtoes -25.1149
lfemur -39.8813 -4.06496 -10.8774
ltibia 31.7182
lfoot -3.95836 -9.3535
ltoes -26.1101
680
root 6.40279 15.5427 31.0189 11.2662 -7.79455 -7.8135
lowerback -4.82855 2.81771 8.22969
upperback -7.45422 3.63706 0.0910046
thorax -4.60573 1.40252 -4.45783
lowerneck 18.8281 -11.2578 -30.3863
upperneck -7.70996 -21.1811 42.3564
head 3.71812 -12.9465 20.6474
rclavicle 7.45443e-016 1.66979e-014
rhumerus -38.9932 -12.7302 -81.897
rradius 23.5546
rwrist 30.8851
rhand -9.6637 -0.906097
rfingers 7.12502
rthumb 16.3075 -30.2404
lclavicle 7.45443e-016 1.66979e-014
lhumerus -46.1016 3.36502 84.3209
lradius 28.5455
lwrist 30.4845
lhand -15.7654 -10.3123
lfingers 7.12502
lthumb 10.4264 19.4091
rfemur -3.631 8.98756 29.8477
rtibia 29.8481
rfoot -17.2895 9.38141
rtoes -25.3337
lfemur -39.6555 -3.97931 -11.2842
ltibia 31.9403
lfoot -4.14973 -9.49891
ltoes -25.6746
681
root 6.41708 15.5488 31.1206 11.2885 -7.91185 -7.61712
lowerback -5 2.80472 7.98083
upperback -7.50488 3.60642 0.0264709
thorax -4.57339 1.3978 -4.3805
lowerneck 18.9914 -11.2578 -30.3673
upperneck -7.82502 -21.1985 42.4107
head 3.67312 -12.9783 20.6916
rclavicle -2.33572e-015 2.06736e-014
rhumerus -39.2442 -13.3654 -81.5228
rradius 23.3236
rwrist 31.3408
rhand -9.55032 -0.953243
rfingers 7.12502
rthumb 16.4166 -30.2786
lclavicle -2.33572e-015 2.06736e-014
lhumerus -46.19 3.65816 83.9852
lradius 28.0721
lwrist 30.365
lhand -15.5647 -9.77143
lfingers 7.12502
lthumb 10.6201 19.9402
rfemur -3.77703 8.87829 29.5357
rtibia 30.6288
rfoot -16.852 9.61388
rtoes -25.4876
lfemur -39.4025 -3.86232 -11.6704
ltibia 32.1375
lfoot -4.40189 -9.67117
ltoes -25.229
682
root 6.43049 15.5558 31.2203 11.2996 -8.04669 -7.42438
lowerback -5.13781 2.79292 7.72327
upperback -7.55605 3.58167 -0.035306
thorax -4.56023 1.39572 -4.29702
lowerneck 19.1748 -11.253 -30.3444
upperneck -7.96341 -21.2062 42.4663
head 3.61389 -13.0077 20.7414
rclavicle -2.48481e-015 -2.46493e-014
rhumerus -39.4984 -13.9942 -81.1456
rradius 23.0958
rwrist 31.7621
rhand -9.43229 -0.988638
rfingers 7.12502
rthumb 16.5303 -30.3045
lclavicle -2.48481e-015 -2.46493e-014
lhumerus -46.3026 3.91402 83.6687
lradius 27.694
lwrist 30.2912
lhand -15.4068 -9.21553
lfingers 7.12502
lthumb 10.7724 20.4882
rfemur -3.95542 8.76137 29.2228
rtibia 31.4538
rfoot -16.359 9.88909
rtoes -25.5688
lfemur -39.1171 -3.71709 -12.0568
ltibia 32.2977
lfoot -4.6919 -9.84797
ltoes -24.8035
683
root 6.44287 15.5632 31.3178 11.3022 -8.1972 -7.24205
lowerback -5.24714 2.7837 7.46351
upperback -7.60156 3.56356 -0.0938938
thorax -4.55648 1.39696 -4.21005
lowerneck 19.3694 -11.2497 -30.3125
upperneck -8.14011 -21.2064 42.5314
head 3.54003 -13.0359 20.7982
rclavicle -3.97569e-014 -2.10712e-014
rhumerus -39.7414 -14.6116 -80.7737
rradius 22.8741
rwrist 32.1451
rhand -9.30056 -0.994614
rfingers 7.12502
rthumb 16.6571 -30.2999
lclavicle -3.97569e-014 -2.10712e-014
lhumerus -46.413 4.12407 83.3775
lradius 27.384
lwrist 30.2638
lhand -15.2945 -8.67997
lfingers 7.12502
lthumb 10.8807 21.0181
rfemur -4.16641 8.64377 28.9191
rtibia 32.3214
rfoot -15.7994 10.198
rtoes -25.5511
lfemur -38.7995 -3.53574 -12.4367
ltibia 32.4137
lfoot -5.00171 -10.0279
ltoes -24.4369
684
root 6.45455 15.5714 31.4136 11.3037 -8.37692 -7.0524
lowerback -5.3327 2.7781 7.18392
upperback -7.65366 3.55348 -0.153765
thorax -4.57292 1.40227 -4.11452
lowerneck 19.6006 -11.2359 -30.2788
upperneck -8.35853 -21.1891 42.6076
head 3.44313 -13.0605 20.872
rclavicle 4.72114e-015 1.11319e-014
rhumerus -39.9845 -15.1811 -80.4245
rradius 22.6626
rwrist 32.4703
rhand -9.15828 -0.977085
rfingers 7.12502
rthumb 16.7941 -30.2708
lclavicle 4.72114e-015 1.11319e-014
lhumerus -46.5538 4.2819 83.1145
lradius 27.1623
lwrist 30.278
lhand -15.2375 -8.19443
lfingers 7.12502
lthumb 10.9356 21.5008
rfemur -4.41942 8.52655 28.5981
rtibia 33.2242
rfoot -15.1704 10.5502
rtoes -25.4334
lfemur -38.4502 -3.3141 -12.8302
ltibia 32.4769
lfoot -5.32611 -10.2034
ltoes -24.2083
685
root 6.46575 15.5805 31.5081 11.3041 -8.58283 -6.84247
lowerback -5.40845 2.77631 6.87711
upperback -7.7097 3.55014 -0.218722
thorax -4.59917 1.41185 -4.00951
lowerneck 19.8723 -11.2122 -30.2462
upperneck -8.63047 -21.1541 42.6992
head 3.32067 -13.0823 20.9669
rclavicle -3.47873e-015 -2.38542e-015
rhumerus -40.2227 -15.6874 -80.1047
rradius 22.4655
rwrist 32.735
rhand -8.99588 -0.943615
rfingers 7.12502
rthumb 16.9504 -30.224
lclavicle -3.47873e-015 -2.38542e-015
lhumerus -46.7195 4.37769 82.8901
lradius 27.0244
lwrist 30.3301
lhand -15.2444 -7.75749
lfingers 7.12502
lthumb 10.929 21.9381
rfemur -4.70644 8.40009 28.2443
rtibia 34.1484
rfoot -14.4765 10.9416
rtoes -25.2531
lfemur -38.0722 -3.05458 -13.2533
ltibia 32.4871
lfoot -5.64869 -10.3796
ltoes -24.0013
686
root 6.47704 15.5908 31.6023 11.3052 -8.81401 -6.61475
lowerback -5.49119 2.77831 6.5546
upperback -7.76733 3.55171 -0.289385
thorax -4.62313 1.42473 -3.90121
lowerneck 20.1983 -11.1729 -30.2134
upperneck -8.96363 -21.0943 42.8082
head 3.16528 -13.0994 21.0889
rclavicle 9.14409e-015 6.36111e-015
rhumerus -40.4444 -16.1171 -79.8278
rradius 22.28
rwrist 32.945
rhand -8.80384 -0.907717
rfingers 7.12502
rthumb 17.1353 -30.1721
lclavicle 9.14409e-015 6.36111e-015
lhumerus -46.909 4.40434 82.7112
lradius 26.9575
lwrist 30.4202
lhand -15.3138 -7.42087
lfingers 7.12502
lthumb 10.8621 22.2782
rfemur -5.01783 8.25737 27.855
rtibia 35.0819
rfoot -13.7119 11.375
rtoes -24.9875
lfemur -37.6657 -2.76537 -13.7033
ltibia 32.4452
lfoot -5.95331 -10.5536
ltoes -23.7206
687
root 6.48882 15.6023 31.6964 11.313 -9.06828 -6.37469
lowerback -5.58521 2.78327 6.22946
upperback -7.82556 3.55663 -0.363622
thorax -4.64122 1.43964 -3.79446
lowerneck 20.5217 -11.1293 -30.1878
upperneck -9.31027 -21.0264 42.923
head 3.00582 -13.1129 21.2199
rclavicle 1.10325e-014 6.36111e-015
rhumerus -40.644 -16.4486 -79.6064
rradius 22.1217
rwrist 33.0993
rhand -8.57699 -0.882699
rfingers 7.12502
rthumb 17.3536 -30.128
lclavicle 1.10325e-014 6.36111e-015
lhumerus -47.1086 4.36672 82.5817
lradius 26.9497
lwrist 30.5251
lhand -15.4221 -7.17834
lfingers 7.12502
lthumb 10.7576 22.5262
rfemur -5.35498 8.08931 27.4314
rtibia 36.0157
rfoot -12.8737 11.852
rtoes -24.6529
lfemur -37.2404 -2.44294 -14.1774
ltibia 32.3579
lfoot -6.24438 -10.7304
ltoes -23.3577
688
root 6.50104 15.6147 31.7902 11.3259 -9.34545 -6.12141
lowerback -5.68735 2.78978 5.89988
upperback -7.88775 3.5635 -0.441685
thorax -4.65904 1.45568 -3.68882
lowerneck 20.8555 -11.0751 -30.1691
upperneck -9.67126 -20.9442 43.0443
head 2.83712 -13.1209 21.3647
rclavicle 2.71341e-014 -4.77083e-015
rhumerus -40.8214 -16.6785 -79.4453
rradius 21.9882
rwrist 33.2154
rhand -8.31294 -0.866886
rfingers 7.12502
rthumb 17.6077 -30.0896
lclavicle 2.71341e-014 -4.77083e-015
lhumerus -47.3298 4.26646 82.4991
lradius 27.0078
lwrist 30.6264
lhand -15.5594 -7.0159
lfingers 7.12502
lthumb 10.6252 22.6955
rfemur -5.71733 7.90283 26.9751
rtibia 36.9472
rfoot -11.9548 12.3567
rtoes -24.2581
lfemur -36.8004 -2.0975 -14.6719
ltibia 32.2297
lfoot -6.5197 -10.8991
ltoes -22.9162
689
root 6.51385 15.628 31.8827 11.3554 -9.64762 -5.86981
lowerback -5.80325 2.80056 5.58106
upperback -7.95161 3.57536 -0.519244
thorax -4.67034 1.47398 -3.5878
lowerneck 21.1766 -11.0208 -30.1516
upperneck -10.0274 -20.8594 43.159
head 2.66988 -13.1256 21.5068
rclavicle -3.1408e-014 -1.35174e-014
rhumerus -40.9637 -16.8019 -79.3511
rradius 21.8867
rwrist 33.2998
rhand -8.0161 -0.851807
rfingers 7.12502
rthumb 17.8933 -30.0486
lclavicle -3.1408e-014 -1.35174e-014
lhumerus -47.5365 4.09961 82.4706
lradius 27.089
lwrist 30.7187
lhand -15.6961 -6.95219
lfingers 7.12502
lthumb 10.4933 22.7659
rfemur -6.12184 7.70689 26.5005
rtibia 37.8784
rfoot -10.9373 12.8814
rtoes -23.7849
lfemur -36.3651 -1.73032 -15.1674
ltibia 32.0696
lfoot -6.77668 -11.0532
ltoes -22.3965
690
root 6.5273 15.6421 31.9741 11.3967 -9.96976 -5.60818
lowerback -5.9194 2.81063 5.26295
upperback -8.01872 3.58676 -0.599422
thorax -4.68522 1.49186 -3.48996
lowerneck 21.4898 -10.9682 -30.1325
upperneck -10.3906 -20.7726 43.2694
head 2.5004 -13.128 21.6472
rclavicle -4.62174e-014 -1.59028e-015
rhumerus -41.071 -16.8253 -79.3233
rradius 21.8205
rwrist 33.3701
rhand -7.69269 -0.827658
rfingers 7.12502
rthumb 18.2045 -29.9958
lclavicle -4.62174e-014 -1.59028e-015
lhumerus -47.7476 3.8729 82.4918
lradius 27.2282
lwrist 30.7904
lhand -15.8228 -6.98557
lfingers 7.12502
lthumb 10.3711 22.7387
rfemur -6.57165 7.49327 25.9963
rtibia 38.8149
rfoot -9.83071 13.4205
rtoes -23.2386
lfemur -35.934 -1.34822 -15.677
ltibia 31.8814
lfoot -7.02391 -11.1941
ltoes -21.8406
691
root 6.5409 15.6565 32.0635 11.45 -10.3 -5.36721
lowerback -6.0322 2.82068 4.97097
upperback -8.08184 3.59834 -0.673127
thorax -4.69726 1.50893 -3.39992
lowerneck 21.8027 -10.923 -30.1058
upperneck -10.7884 -20.685 43.382
head 2.32123 -13.1307 21.7892
rclavicle -3.1408e-014 2.06736e-014
rhumerus -41.1355 -16.7662 -79.3558
rradius 21.7943
rwrist 33.435
rhand -7.34359 -0.7816
rfingers 7.12502
rthumb 18.5403 -29.9181
lclavicle -3.1408e-014 2.06736e-014
lhumerus -47.9394 3.60497 82.5495
lradius 27.3935
lwrist 30.8156
lhand -15.9242 -7.1457
lfingers 7.12502
lthumb 10.2733 22.5834
rfemur -7.06498 7.27369 25.5059
rtibia 39.7583
rfoot -8.62514 13.9459
rtoes -22.5782
lfemur -35.5169 -0.96237 -16.1581
ltibia 31.6755
lfoot -7.24753 -11.3235
ltoes -21.2355
692
root 6.55473 15.6711 32.1506 11.5225 -10.6323 -5.14224
lowerback -6.14282 2.82739 4.70087
upperback -8.14672 3.60572 -0.74214
thorax -4.71238 1.52285 -3.31748
lowerneck 22.1374 -10.8812 -30.0701
upperneck -11.234 -20.5931 43.5009
head 2.12405 -13.1344 21.9402
rclavicle -2.09718e-014 -2.70347e-014
rhumerus -41.1652 -16.625 -79.4503
rradius 21.8134
rwrist 33.4859
rhand -6.97859 -0.710951
rfingers 7.12502
rthumb 18.8914 -29.8136
lclavicle -2.09718e-014 -2.70347e-014
lhumerus -48.1165 3.29346 82.6418
lradius 27.5778
lwrist 30.8105
lhand -15.9989 -7.41311
lfingers 7.12502
lthumb 10.2012 22.3196
rfemur -7.6125 7.03699 25.0229
rtibia 40.7081
rfoot -7.32501 14.4542
rtoes -21.7841
lfemur -35.1238 -0.574601 -16.6188
ltibia 31.4578
lfoot -7.47191 -11.4393
ltoes -20.7162
